<?xml version="1.0" ?><!DOCTYPE svg  PUBLIC '-//W3C//DTD SVG 1.1//EN'  'http://www.w3.org/Graphics/SVG/1.1/DTD/svg11.dtd'><svg enable-background="new 0 0 500 500" height="500px" id="Layer_1" version="1.1" viewBox="0 0 500 500" width="500px" xml:space="preserve" xmlns="http://www.w3.org/2000/svg" xmlns:xlink="http://www.w3.org/1999/xlink"><path clip-rule="evenodd" d="M36.992,281.798c0,102.851,83.406,186.253,186.251,186.253  c102.849,0,186.251-83.402,186.251-186.253c0-35.16-15.082-79.861-27.254-98.847c-10.543-16.263-14.181-26.712-14.181-41.976  c0-31.799,33.529-63.599,68.693-63.599h4.543c12.536,0,22.711-10.177,22.711-22.713c0-12.536-10.175-22.713-22.711-22.713h-4.543  c-55.881,0-103.669,29.803-115.024,90.853c-23.267-17.624-59.419-27.254-98.486-27.254  C120.398,95.548,36.992,178.953,36.992,281.798z M200.53,281.798c0-12.536,10.177-22.712,22.713-22.712s22.713,10.176,22.713,22.712  c0,12.54-10.177,22.715-22.713,22.715S200.53,294.338,200.53,281.798z M82.418,281.798c0-22.624,18.26-40.884,40.884-40.884  c22.625,0,40.886,18.26,40.886,40.884c0,22.627-18.26,40.887-40.886,40.887C100.679,322.685,82.418,304.425,82.418,281.798z   M282.298,281.798c0-22.624,18.26-40.884,40.887-40.884c22.624,0,40.885,18.26,40.885,40.884c0,22.627-18.261,40.887-40.885,40.887  C300.558,322.685,282.298,304.425,282.298,281.798z M182.358,381.741c0-22.628,18.26-40.889,40.886-40.889  s40.885,18.261,40.885,40.889c0,22.623-18.26,40.883-40.885,40.883S182.358,404.364,182.358,381.741z M182.358,181.858  c0-22.624,18.26-40.883,40.886-40.883s40.885,18.26,40.885,40.883c0,22.625-18.26,40.886-40.885,40.886  S182.358,204.483,182.358,181.858z" fill="#010101" fill-rule="evenodd"/></svg>